PathFileType	4	(X/Y/Z)	/Users/mathieubourgeois/Desktop/Analyse/Traitement/Sujet_01/Data/Transformed_Sujet_01_velo_60.trc
DataRate	CameraRate	NumFrames	NumMarkers	Units	OrigDataRate	OrigDataStartFrame	OrigNumFrames
120.000000	120.000000	4	36	mm	120.000000	724	1931
Frame#	Time	C7			RFHD			LFHD			RBHD			LBHD			RSHO			LSHO			CLAV			STRN			T10			RBWT			LBWT			RFWT			LFWT			RRAD			RWRA			RWRB			RCAR			RHUM			LHUM			LRAD			LWRA			LWRB			LCAR			RKNI			RKNE			LKNI			LKNE			RANE			RANI			RTOE			RHEE			LTOE			LANI			LANE			LHEE			
		X1	Y1	Z1	X2	Y2	Z2	X3	Y3	Z3	X4	Y4	Z4	X5	Y5	Z5	X6	Y6	Z6	X7	Y7	Z7	X8	Y8	Z8	X9	Y9	Z9	X10	Y10	Z10	X11	Y11	Z11	X12	Y12	Z12	X13	Y13	Z13	X14	Y14	Z14	X15	Y15	Z15	X16	Y16	Z16	X17	Y17	Z17	X18	Y18	Z18	X19	Y19	Z19	X20	Y20	Z20	X21	Y21	Z21	X22	Y22	Z22	X23	Y23	Z23	X24	Y24	Z24	X25	Y25	Z25	X26	Y26	Z26	X27	Y27	Z27	X28	Y28	Z28	X29	Y29	Z29	X30	Y30	Z30	X31	Y31	Z31	X32	Y32	Z32	X33	Y33	Z33	X34	Y34	Z34	X35	Y35	Z35	X36	Y36	Z36	

725	6.033333333333333	-30.4893493652344	1456.382934570312	221.5289916992187	142.5575103759765	1503.545532226562	317.0026245117186	169.6539764404297	1508.686401367188	193.2788391113281	-1.076582431793249	1545.998413085938	293.1572875976561	20.62851524353025	1551.358154296875	163.8709106445312	-9.360986709594767	1390.541381835938	327.7556457519531	-30.04759788513185	1369.191772460938	106.1054306030273	4.026480197906467	1324.015380859375	226.4698028564452	-47.13105010986331	1220.866943359375	235.8476257324218	-228.0307922363282	1377.666625976562	251.5246429443358	-407.3624877929688	1108.987548828125	343.1207580566405	-421.1768188476562	1105.505004882812	223.582550048828	-231.2792510986329	1063.797973632812	381.2401428222656	-247.3177185058594	1079.003051757812	157.078140258789	93.43433380126947	1142.286254882812	441.3206787109374	299.3604431152343	1028.659423828125	387.8479919433594	324.8713989257812	1049.601318359375	445.514404296875	401.4938659667968	1033.024291992188	374.9266967773438	142.5400085449218	1182.945434570312	463.0140380859374	145.0792541503906	1165.411499023438	32.41392517089839	94.57878112792969	1130.66064453125	51.52477264404291	318.3326721191406	1043.180419921875	129.9736938476562	340.8424072265625	1053.490600585938	67.46647644042966	405.6892395019531	1039.37890625	137.9459228515625	-111.6041564941407	630.1746826171875	347.8706970214843	-135.8305664062501	660.100830078125	463.0751953124999	23.15020751953123	872.7305297851562	203.7226562499999	-1.420731186866769	866.8831176757812	74.48653411865229	-131.0291595458985	313.4418029785156	431.4613037109375	-93.38527679443364	319.4851379394531	358.4154663085938	52.08850860595697	240.0810699462891	435.2682495117188	-184.1100616455079	273.9197082519531	377.5227661132812	-98.25979614257814	508.6475524902344	136.6988067626953	-227.4251708984375	633.315673828125	189.0284118652343	-247.2789916992188	628.779541015625	109.5490036010741	-329.7593688964844	606.8497314453125	156.9501342773437	
726	6.041666666666667	-30.83755302429202	1456.004150390625	220.8545989990234	142.5250854492187	1502.882080078125	315.8540039062499	169.4541778564453	1507.601196289062	192.1017608642578	-0.9525753855705619	1545.962524414062	292.1805114746093	20.60409736633299	1550.912841796875	162.7994384765624	-9.690754890441935	1390.23046875	327.1617736816406	-30.51345443725587	1368.720092773438	105.4581375122069	3.295611381530734	1323.615844726562	225.8851776123046	-47.78944015502933	1220.4931640625	235.4582214355468	-228.4763946533203	1377.48583984375	250.999786376953	-407.7158203125001	1108.605102539062	342.5890197753905	-421.3163146972656	1105.045654296875	222.9812011718749	-231.6031341552735	1063.609252929688	381.0996398925781	-247.3606262207032	1078.9853515625	156.8062744140624	93.11831665039057	1142.10009765625	440.7985534667968	299.2555236816406	1028.669555664062	387.5117492675781	324.7071228027343	1049.619873046875	445.2565307617188	401.3753356933593	1033.10205078125	374.6923828125	142.3213500976562	1182.55322265625	462.3984680175781	144.7533111572266	1165.020751953125	32.10947036743158	94.23788452148438	1130.268798828125	51.23701477050776	318.1267700195312	1043.056274414062	129.7846984863281	340.605224609375	1053.359375	67.26493072509763	405.1909484863281	1039.957397460938	138.7266998291016	-116.4452438354493	627.0023803710938	346.8300781249999	-140.4303283691407	657.3356323242188	462.0018615722656	24.77967262268064	879.9291381835938	206.7235260009765	1.709784865379324	873.6182250976562	75.15750122070307	-137.1544494628907	310.6505737304688	431.4589538574219	-99.56118774414067	316.1707458496094	358.4786071777344	45.00600814819331	234.2476043701172	435.0608215332031	-190.7190551757813	271.9961853027344	377.6661987304688	-90.6814422607422	514.8333129882812	136.8111419677734	-222.0781402587891	637.4948120117188	188.8204650878906	-241.3216857910156	632.4597778320312	109.5132141113281	-323.7664184570312	609.25732421875	156.9192810058593	
727	6.05	-31.16850852966311	1455.627319335938	220.2245330810546	142.5026397705078	1502.236328125	314.7845764160155	169.2676544189453	1506.596801757812	190.9365234374999	-0.8226699829101919	1545.911987304688	291.1832275390624	20.56614875793455	1550.47021484375	161.775650024414	-10.06422138214115	1389.922241210938	326.5775756835937	-30.92236900329591	1368.248657226562	104.8958282470702	2.614506244659396	1323.207641601562	225.3302764892577	-48.51618194580081	1220.156616210938	235.082534790039	-228.8771362304688	1377.299194335938	250.470001220703	-408.0244140625001	1108.24853515625	342.1044006347655	-421.4631958007812	1104.598754882812	222.4888458251952	-231.9765625000001	1063.46337890625	380.8614807128906	-247.4528350830078	1078.952392578125	156.5011444091796	92.80615997314447	1141.928955078125	440.2885742187499	299.1378173828124	1028.678955078125	387.2347412109375	324.5248413085937	1049.6572265625	445.050048828125	401.2840576171874	1033.166137695312	374.5274353027344	141.8450012207031	1182.616943359375	462.0556640624999	144.4156494140625	1164.6572265625	31.83702468872065	93.89825439453125	1129.896362304688	50.98231506347651	317.93994140625	1042.937133789062	129.612075805664	340.8171081542969	1053.0107421875	66.64142608642575	405.0460205078125	1040.075927734375	138.4730987548828	-120.872787475586	624.147216796875	345.7067260742187	-144.718978881836	654.9102783203125	460.8360290527343	27.4599742889404	886.3865356445312	206.3862152099609	4.7562551498413	880.2542724609375	75.72187805175776	-143.4918670654297	308.1643981933594	431.3684387207031	-97.30709075927739	310.9671936035156	358.1263732910156	37.59111785888667	228.8091583251953	434.83447265625	-197.5425872802735	270.3984985351562	377.7311706542969	-82.92892456054689	520.6139526367188	136.9988555908203	-215.6730651855469	641.3566284179688	189.0307159423828	-235.2057495117188	635.569580078125	109.5263671874999	-317.8023376464844	611.1294555664062	157.0802917480468	
728	6.058333333333334	-31.5125370025635	1455.299438476562	219.6584014892577	142.524185180664	1501.664306640625	313.7201538085936	169.1256561279297	1505.59521484375	189.857681274414	-0.6853880882263539	1545.852294921875	290.2416076660155	20.51280403137205	1550.003295898438	160.8240509033202	-10.42868804931645	1389.664184570312	326.1297607421874	-31.35092544555665	1367.826782226562	104.3122634887694	1.932537436485263	1322.7939453125	224.9089050292968	-49.20391845703128	1219.862060546875	234.7936859130859	-229.3003082275391	1377.1552734375	250.0092620849608	-408.3738708496094	1107.927978515625	341.592559814453	-421.6270446777344	1104.206909179688	221.9951934814452	-232.3654785156251	1063.333618164062	380.7807006835936	-247.5055847167969	1078.943237304688	156.1887969970702	92.53544616699213	1141.741088867188	439.7528991699218	299.0397338867187	1028.682006835938	387.0422668457031	324.3541870117187	1049.665161132812	444.8135681152344	401.1940307617187	1033.218505859375	374.3950500488281	141.4842834472656	1182.472290039062	461.6584472656249	144.096435546875	1164.32568359375	31.55794525146479	93.62096405029297	1129.529174804688	50.71137237548822	317.7429809570312	1042.768798828125	129.4500732421875	340.6525573730469	1052.873046875	66.44156646728513	404.8602294921875	1040.206420898438	138.3013458251953	-125.1688995361329	621.5826416015625	344.5153503417968	-148.4378204345704	652.45458984375	459.1270141601562	30.27035522460935	893.2616577148438	206.483901977539	7.563055038452139	886.6072998046875	76.26808929443354	-150.0602569580079	306.0544128417969	431.1590270996094	-113.0275192260743	310.5812377929688	358.322021484375	29.90560913085932	223.8428802490235	434.5394287109375	-204.5905456542969	269.1708984375	377.6692810058594	-74.88328552246095	525.8685302734375	137.2041931152343	-209.637435913086	644.4624633789062	189.1647491455078	-228.9144592285156	638.2029418945312	109.6496124267577	-312.5745849609375	612.6436157226562	157.7132110595703	
